<svg xmlns="http://www.w3.org/2000/svg" width="1000" height="1000" viewBox="0 0 40 40" shape-rendering="crispEdges"><rect width="40" height="40" fill="#e3e5e4"/><rect x="18" y="2" width="4" height="1" fill="#48494b"/><rect x="15" y="3" width="10" height="1" fill="#48494b"/><rect x="14" y="4" width="12" height="1" fill="#48494b"/><rect x="13" y="5" width="14" height="1" fill="#48494b"/><rect x="13" y="6" width="14" height="1" fill="#48494b"/><rect x="13" y="7" width="14" height="1" fill="#48494b"/><rect x="13" y="8" width="14" height="1" fill="#48494b"/><rect x="9" y="9" width="21" height="1" fill="#48494b"/><rect x="9" y="10" width="22" height="1" fill="#48494b"/><rect x="9" y="11" width="22" height="1" fill="#48494b"/><rect x="9" y="12" width="22" height="1" fill="#48494b"/><rect x="8" y="13" width="23" height="1" fill="#48494b"/><rect x="9" y="14" width="8" height="1" fill="#48494b"/><rect x="18" y="14" width="13" height="1" fill="#48494b"/><rect x="9" y="15" width="8" height="1" fill="#48494b"/><rect x="18" y="15" width="13" height="1" fill="#48494b"/><rect x="7" y="16" width="11" height="1" fill="#48494b"/><rect x="19" y="16" width="2" height="1" fill="#48494b"/><rect x="22" y="16" width="11" height="1" fill="#48494b"/><rect x="9" y="17" width="5" height="1" fill="#48494b"/><rect x="15" y="17" width="3" height="1" fill="#48494b"/><rect x="19" y="17" width="1" height="1" fill="#48494b"/><rect x="23" y="17" width="8" height="1" fill="#48494b"/><rect x="9" y="18" width="5" height="1" fill="#48494b"/><rect x="15" y="18" width="2" height="1" fill="#48494b"/><rect x="18" y="18" width="1" height="1" fill="#48494b"/><rect x="23" y="18" width="2" height="1" fill="#48494b"/><rect x="27" y="18" width="4" height="1" fill="#48494b"/><rect x="9" y="19" width="7" height="1" fill="#48494b"/><rect x="19" y="19" width="2" height="1" fill="#48494b"/><rect x="23" y="19" width="1" height="1" fill="#48494b"/><rect x="27" y="19" width="5" height="1" fill="#48494b"/><rect x="9" y="20" width="4" height="1" fill="#48494b"/><rect x="15" y="20" width="2" height="1" fill="#48494b"/><rect x="21" y="20" width="1" height="1" fill="#48494b"/><rect x="23" y="20" width="2" height="1" fill="#48494b"/><rect x="26" y="20" width="3" height="1" fill="#48494b"/><rect x="30" y="20" width="3" height="1" fill="#48494b"/><rect x="9" y="21" width="1" height="1" fill="#48494b"/><rect x="12" y="21" width="2" height="1" fill="#48494b"/><rect x="16" y="21" width="1" height="1" fill="#48494b"/><rect x="23" y="21" width="2" height="1" fill="#48494b"/><rect x="27" y="21" width="2" height="1" fill="#48494b"/><rect x="30" y="21" width="1" height="1" fill="#48494b"/><rect x="10" y="22" width="1" height="1" fill="#48494b"/><rect x="12" y="22" width="1" height="1" fill="#48494b"/><rect x="22" y="22" width="1" height="1" fill="#48494b"/><rect x="26" y="22" width="2" height="1" fill="#48494b"/><rect x="13" y="23" width="1" height="1" fill="#48494b"/><rect x="15" y="23" width="2" height="1" fill="#48494b"/><rect x="24" y="23" width="1" height="1" fill="#48494b"/><rect x="27" y="23" width="1" height="1" fill="#48494b"/><rect x="29" y="23" width="1" height="1" fill="#48494b"/><rect x="12" y="24" width="2" height="1" fill="#48494b"/><rect x="27" y="24" width="1" height="1" fill="#48494b"/><rect x="13" y="25" width="2" height="1" fill="#48494b"/><rect x="26" y="25" width="2" height="1" fill="#48494b"/><rect x="13" y="26" width="2" height="1" fill="#48494b"/><rect x="25" y="26" width="3" height="1" fill="#48494b"/><rect x="15" y="27" width="1" height="1" fill="#48494b"/><rect x="25" y="27" width="1" height="1" fill="#48494b"/><rect x="16" y="28" width="1" height="1" fill="#48494b"/><rect x="18" y="29" width="1" height="1" fill="#48494b"/><rect x="22" y="29" width="2" height="1" fill="#48494b"/><rect x="18" y="30" width="3" height="1" fill="#48494b"/><rect x="16" y="31" width="1" height="1" fill="#48494b"/><rect x="21" y="31" width="1" height="1" fill="#48494b"/><rect x="15" y="32" width="1" height="1" fill="#48494b"/><rect x="24" y="32" width="1" height="1" fill="#48494b"/><rect x="12" y="33" width="3" height="1" fill="#48494b"/><rect x="26" y="33" width="4" height="1" fill="#48494b"/><rect x="10" y="34" width="5" height="1" fill="#48494b"/><rect x="16" y="34" width="1" height="1" fill="#48494b"/><rect x="24" y="34" width="1" height="1" fill="#48494b"/><rect x="26" y="34" width="5" height="1" fill="#48494b"/><rect x="8" y="35" width="1" height="1" fill="#48494b"/><rect x="11" y="35" width="3" height="1" fill="#48494b"/><rect x="15" y="35" width="1" height="1" fill="#48494b"/><rect x="17" y="35" width="2" height="1" fill="#48494b"/><rect x="22" y="35" width="2" height="1" fill="#48494b"/><rect x="25" y="35" width="1" height="1" fill="#48494b"/><rect x="27" y="35" width="4" height="1" fill="#48494b"/><rect x="32" y="35" width="1" height="1" fill="#48494b"/><rect x="8" y="36" width="1" height="1" fill="#48494b"/><rect x="10" y="36" width="4" height="1" fill="#48494b"/><rect x="15" y="36" width="3" height="1" fill="#48494b"/><rect x="20" y="36" width="1" height="1" fill="#48494b"/><rect x="24" y="36" width="1" height="1" fill="#48494b"/><rect x="27" y="36" width="3" height="1" fill="#48494b"/><rect x="31" y="36" width="1" height="1" fill="#48494b"/><rect x="33" y="36" width="1" height="1" fill="#48494b"/><rect x="8" y="37" width="1" height="1" fill="#48494b"/><rect x="11" y="37" width="3" height="1" fill="#48494b"/><rect x="18" y="37" width="5" height="1" fill="#48494b"/><rect x="24" y="37" width="1" height="1" fill="#48494b"/><rect x="26" y="37" width="4" height="1" fill="#48494b"/><rect x="32" y="37" width="1" height="1" fill="#48494b"/><rect x="34" y="37" width="1" height="1" fill="#48494b"/><rect x="6" y="38" width="1" height="1" fill="#48494b"/><rect x="8" y="38" width="2" height="1" fill="#48494b"/><rect x="11" y="38" width="4" height="1" fill="#48494b"/><rect x="16" y="38" width="1" height="1" fill="#48494b"/><rect x="25" y="38" width="1" height="1" fill="#48494b"/><rect x="27" y="38" width="4" height="1" fill="#48494b"/><rect x="32" y="38" width="1" height="1" fill="#48494b"/><rect x="35" y="38" width="1" height="1" fill="#48494b"/><rect x="5" y="39" width="1" height="1" fill="#48494b"/><rect x="8" y="39" width="1" height="1" fill="#48494b"/><rect x="11" y="39" width="3" height="1" fill="#48494b"/><rect x="15" y="39" width="1" height="1" fill="#48494b"/><rect x="18" y="39" width="1" height="1" fill="#48494b"/><rect x="20" y="39" width="2" height="1" fill="#48494b"/><rect x="23" y="39" width="1" height="1" fill="#48494b"/><rect x="27" y="39" width="3" height="1" fill="#48494b"/><rect x="32" y="39" width="1" height="1" fill="#48494b"/><rect x="34" y="39" width="2" height="1" fill="#48494b"/></svg>