<svg xmlns="http://www.w3.org/2000/svg" width="1000" height="1000" viewBox="0 0 40 40" shape-rendering="crispEdges"><rect width="40" height="40" fill="#e3e5e4"/><rect x="5" y="0" width="30" height="1" fill="#48494b"/><rect x="3" y="1" width="33" height="1" fill="#48494b"/><rect x="1" y="2" width="37" height="1" fill="#48494b"/><rect x="0" y="3" width="40" height="1" fill="#48494b"/><rect x="0" y="4" width="40" height="1" fill="#48494b"/><rect x="0" y="5" width="40" height="1" fill="#48494b"/><rect x="0" y="6" width="40" height="1" fill="#48494b"/><rect x="0" y="7" width="40" height="1" fill="#48494b"/><rect x="0" y="8" width="9" height="1" fill="#48494b"/><rect x="11" y="8" width="29" height="1" fill="#48494b"/><rect x="0" y="9" width="9" height="1" fill="#48494b"/><rect x="13" y="9" width="7" height="1" fill="#48494b"/><rect x="21" y="9" width="19" height="1" fill="#48494b"/><rect x="0" y="10" width="8" height="1" fill="#48494b"/><rect x="10" y="10" width="1" height="1" fill="#48494b"/><rect x="14" y="10" width="26" height="1" fill="#48494b"/><rect x="0" y="11" width="8" height="1" fill="#48494b"/><rect x="9" y="11" width="2" height="1" fill="#48494b"/><rect x="15" y="11" width="5" height="1" fill="#48494b"/><rect x="21" y="11" width="19" height="1" fill="#48494b"/><rect x="0" y="12" width="8" height="1" fill="#48494b"/><rect x="9" y="12" width="1" height="1" fill="#48494b"/><rect x="17" y="12" width="4" height="1" fill="#48494b"/><rect x="23" y="12" width="7" height="1" fill="#48494b"/><rect x="31" y="12" width="9" height="1" fill="#48494b"/><rect x="0" y="13" width="7" height="1" fill="#48494b"/><rect x="19" y="13" width="2" height="1" fill="#48494b"/><rect x="24" y="13" width="16" height="1" fill="#48494b"/><rect x="0" y="14" width="3" height="1" fill="#48494b"/><rect x="4" y="14" width="3" height="1" fill="#48494b"/><rect x="25" y="14" width="5" height="1" fill="#48494b"/><rect x="31" y="14" width="1" height="1" fill="#48494b"/><rect x="33" y="14" width="7" height="1" fill="#48494b"/><rect x="0" y="15" width="3" height="1" fill="#48494b"/><rect x="4" y="15" width="3" height="1" fill="#48494b"/><rect x="9" y="15" width="6" height="1" fill="#48494b"/><rect x="26" y="15" width="6" height="1" fill="#48494b"/><rect x="34" y="15" width="6" height="1" fill="#48494b"/><rect x="0" y="16" width="3" height="1" fill="#48494b"/><rect x="4" y="16" width="2" height="1" fill="#48494b"/><rect x="8" y="16" width="1" height="1" fill="#48494b"/><rect x="15" y="16" width="1" height="1" fill="#48494b"/><rect x="25" y="16" width="1" height="1" fill="#48494b"/><rect x="32" y="16" width="1" height="1" fill="#48494b"/><rect x="36" y="16" width="4" height="1" fill="#48494b"/><rect x="0" y="17" width="3" height="1" fill="#48494b"/><rect x="4" y="17" width="2" height="1" fill="#48494b"/><rect x="7" y="17" width="1" height="1" fill="#48494b"/><rect x="11" y="17" width="2" height="1" fill="#48494b"/><rect x="16" y="17" width="1" height="1" fill="#48494b"/><rect x="24" y="17" width="1" height="1" fill="#48494b"/><rect x="28" y="17" width="2" height="1" fill="#48494b"/><rect x="33" y="17" width="1" height="1" fill="#48494b"/><rect x="37" y="17" width="3" height="1" fill="#48494b"/><rect x="0" y="18" width="4" height="1" fill="#48494b"/><rect x="6" y="18" width="1" height="1" fill="#48494b"/><rect x="10" y="18" width="2" height="1" fill="#48494b"/><rect x="13" y="18" width="1" height="1" fill="#48494b"/><rect x="17" y="18" width="1" height="1" fill="#48494b"/><rect x="23" y="18" width="1" height="1" fill="#48494b"/><rect x="27" y="18" width="2" height="1" fill="#48494b"/><rect x="30" y="18" width="1" height="1" fill="#48494b"/><rect x="34" y="18" width="1" height="1" fill="#48494b"/><rect x="37" y="18" width="3" height="1" fill="#48494b"/><rect x="1" y="19" width="6" height="1" fill="#48494b"/><rect x="10" y="19" width="4" height="1" fill="#48494b"/><rect x="17" y="19" width="7" height="1" fill="#48494b"/><rect x="27" y="19" width="4" height="1" fill="#48494b"/><rect x="34" y="19" width="6" height="1" fill="#48494b"/><rect x="1" y="20" width="1" height="1" fill="#48494b"/><rect x="3" y="20" width="1" height="1" fill="#48494b"/><rect x="6" y="20" width="1" height="1" fill="#48494b"/><rect x="11" y="20" width="2" height="1" fill="#48494b"/><rect x="17" y="20" width="1" height="1" fill="#48494b"/><rect x="23" y="20" width="1" height="1" fill="#48494b"/><rect x="28" y="20" width="2" height="1" fill="#48494b"/><rect x="34" y="20" width="1" height="1" fill="#48494b"/><rect x="36" y="20" width="1" height="1" fill="#48494b"/><rect x="38" y="20" width="2" height="1" fill="#48494b"/><rect x="1" y="21" width="1" height="1" fill="#48494b"/><rect x="3" y="21" width="1" height="1" fill="#48494b"/><rect x="7" y="21" width="1" height="1" fill="#48494b"/><rect x="16" y="21" width="1" height="1" fill="#48494b"/><rect x="24" y="21" width="1" height="1" fill="#48494b"/><rect x="33" y="21" width="1" height="1" fill="#48494b"/><rect x="36" y="21" width="1" height="1" fill="#48494b"/><rect x="39" y="21" width="1" height="1" fill="#48494b"/><rect x="2" y="22" width="4" height="1" fill="#48494b"/><rect x="8" y="22" width="1" height="1" fill="#48494b"/><rect x="15" y="22" width="1" height="1" fill="#48494b"/><rect x="25" y="22" width="1" height="1" fill="#48494b"/><rect x="32" y="22" width="1" height="1" fill="#48494b"/><rect x="36" y="22" width="3" height="1" fill="#48494b"/><rect x="4" y="23" width="3" height="1" fill="#48494b"/><rect x="9" y="23" width="6" height="1" fill="#48494b"/><rect x="18" y="23" width="1" height="1" fill="#48494b"/><rect x="21" y="23" width="1" height="1" fill="#48494b"/><rect x="26" y="23" width="6" height="1" fill="#48494b"/><rect x="35" y="23" width="1" height="1" fill="#48494b"/><rect x="6" y="24" width="2" height="1" fill="#48494b"/><rect x="19" y="24" width="2" height="1" fill="#48494b"/><rect x="32" y="24" width="3" height="1" fill="#48494b"/><rect x="7" y="25" width="4" height="1" fill="#48494b"/><rect x="29" y="25" width="4" height="1" fill="#48494b"/><rect x="7" y="26" width="26" height="1" fill="#48494b"/><rect x="7" y="27" width="6" height="1" fill="#48494b"/><rect x="18" y="27" width="5" height="1" fill="#48494b"/><rect x="29" y="27" width="4" height="1" fill="#48494b"/><rect x="9" y="28" width="21" height="1" fill="#48494b"/><rect x="10" y="29" width="4" height="1" fill="#48494b"/><rect x="17" y="29" width="7" height="1" fill="#48494b"/><rect x="26" y="29" width="3" height="1" fill="#48494b"/><rect x="10" y="30" width="4" height="1" fill="#48494b"/><rect x="17" y="30" width="7" height="1" fill="#48494b"/><rect x="26" y="30" width="3" height="1" fill="#48494b"/><rect x="9" y="31" width="5" height="1" fill="#48494b"/><rect x="17" y="31" width="13" height="1" fill="#48494b"/><rect x="9" y="32" width="1" height="1" fill="#48494b"/><rect x="12" y="32" width="2" height="1" fill="#48494b"/><rect x="17" y="32" width="10" height="1" fill="#48494b"/><rect x="29" y="32" width="1" height="1" fill="#48494b"/><rect x="9" y="33" width="1" height="1" fill="#48494b"/><rect x="12" y="33" width="15" height="1" fill="#48494b"/><rect x="29" y="33" width="1" height="1" fill="#48494b"/><rect x="9" y="34" width="21" height="1" fill="#48494b"/><rect x="10" y="35" width="19" height="1" fill="#48494b"/><rect x="13" y="36" width="1" height="1" fill="#48494b"/><rect x="17" y="36" width="6" height="1" fill="#48494b"/><rect x="26" y="36" width="1" height="1" fill="#48494b"/><rect x="13" y="37" width="1" height="1" fill="#48494b"/><rect x="17" y="37" width="1" height="1" fill="#48494b"/><rect x="21" y="37" width="2" height="1" fill="#48494b"/><rect x="26" y="37" width="1" height="1" fill="#48494b"/><rect x="13" y="38" width="5" height="1" fill="#48494b"/><rect x="21" y="38" width="6" height="1" fill="#48494b"/><rect x="12" y="39" width="6" height="1" fill="#48494b"/><rect x="21" y="39" width="7" height="1" fill="#48494b"/></svg>