<svg xmlns="http://www.w3.org/2000/svg" width="1000" height="1000" viewBox="0 0 40 40" shape-rendering="crispEdges"><rect width="40" height="40" fill="#e3e5e4"/><rect x="20" y="1" width="1" height="1" fill="#48494b"/><rect x="18" y="2" width="1" height="1" fill="#48494b"/><rect x="20" y="2" width="1" height="1" fill="#48494b"/><rect x="22" y="2" width="1" height="1" fill="#48494b"/><rect x="16" y="3" width="1" height="1" fill="#48494b"/><rect x="18" y="3" width="1" height="1" fill="#48494b"/><rect x="20" y="3" width="1" height="1" fill="#48494b"/><rect x="22" y="3" width="1" height="1" fill="#48494b"/><rect x="24" y="3" width="1" height="1" fill="#48494b"/><rect x="11" y="4" width="1" height="1" fill="#48494b"/><rect x="16" y="4" width="1" height="1" fill="#48494b"/><rect x="18" y="4" width="1" height="1" fill="#48494b"/><rect x="20" y="4" width="1" height="1" fill="#48494b"/><rect x="22" y="4" width="1" height="1" fill="#48494b"/><rect x="24" y="4" width="1" height="1" fill="#48494b"/><rect x="14" y="5" width="2" height="1" fill="#48494b"/><rect x="17" y="5" width="1" height="1" fill="#48494b"/><rect x="19" y="5" width="1" height="1" fill="#48494b"/><rect x="21" y="5" width="1" height="1" fill="#48494b"/><rect x="23" y="5" width="1" height="1" fill="#48494b"/><rect x="25" y="5" width="2" height="1" fill="#48494b"/><rect x="7" y="6" width="1" height="1" fill="#48494b"/><rect x="12" y="6" width="1" height="1" fill="#48494b"/><rect x="14" y="6" width="1" height="1" fill="#48494b"/><rect x="16" y="6" width="1" height="1" fill="#48494b"/><rect x="18" y="6" width="1" height="1" fill="#48494b"/><rect x="20" y="6" width="1" height="1" fill="#48494b"/><rect x="22" y="6" width="1" height="1" fill="#48494b"/><rect x="24" y="6" width="1" height="1" fill="#48494b"/><rect x="26" y="6" width="1" height="1" fill="#48494b"/><rect x="30" y="6" width="1" height="1" fill="#48494b"/><rect x="7" y="7" width="2" height="1" fill="#48494b"/><rect x="10" y="7" width="5" height="1" fill="#48494b"/><rect x="16" y="7" width="9" height="1" fill="#48494b"/><rect x="26" y="7" width="5" height="1" fill="#48494b"/><rect x="8" y="8" width="11" height="1" fill="#48494b"/><rect x="20" y="8" width="1" height="1" fill="#48494b"/><rect x="22" y="8" width="11" height="1" fill="#48494b"/><rect x="9" y="9" width="5" height="1" fill="#48494b"/><rect x="15" y="9" width="11" height="1" fill="#48494b"/><rect x="27" y="9" width="4" height="1" fill="#48494b"/><rect x="6" y="10" width="1" height="1" fill="#48494b"/><rect x="8" y="10" width="5" height="1" fill="#48494b"/><rect x="14" y="10" width="13" height="1" fill="#48494b"/><rect x="28" y="10" width="4" height="1" fill="#48494b"/><rect x="34" y="10" width="1" height="1" fill="#48494b"/><rect x="9" y="11" width="25" height="1" fill="#48494b"/><rect x="9" y="12" width="26" height="1" fill="#48494b"/><rect x="6" y="13" width="1" height="1" fill="#48494b"/><rect x="8" y="13" width="26" height="1" fill="#48494b"/><rect x="5" y="14" width="29" height="1" fill="#48494b"/><rect x="4" y="15" width="31" height="1" fill="#48494b"/><rect x="36" y="15" width="1" height="1" fill="#48494b"/><rect x="6" y="16" width="12" height="1" fill="#48494b"/><rect x="19" y="16" width="3" height="1" fill="#48494b"/><rect x="23" y="16" width="13" height="1" fill="#48494b"/><rect x="7" y="17" width="7" height="1" fill="#48494b"/><rect x="15" y="17" width="3" height="1" fill="#48494b"/><rect x="21" y="17" width="1" height="1" fill="#48494b"/><rect x="23" y="17" width="3" height="1" fill="#48494b"/><rect x="27" y="17" width="8" height="1" fill="#48494b"/><rect x="7" y="18" width="5" height="1" fill="#48494b"/><rect x="13" y="18" width="1" height="1" fill="#48494b"/><rect x="16" y="18" width="1" height="1" fill="#48494b"/><rect x="21" y="18" width="1" height="1" fill="#48494b"/><rect x="24" y="18" width="2" height="1" fill="#48494b"/><rect x="27" y="18" width="7" height="1" fill="#48494b"/><rect x="4" y="19" width="1" height="1" fill="#48494b"/><rect x="6" y="19" width="6" height="1" fill="#48494b"/><rect x="16" y="19" width="1" height="1" fill="#48494b"/><rect x="18" y="19" width="1" height="1" fill="#48494b"/><rect x="24" y="19" width="1" height="1" fill="#48494b"/><rect x="28" y="19" width="7" height="1" fill="#48494b"/><rect x="5" y="20" width="5" height="1" fill="#48494b"/><rect x="11" y="20" width="1" height="1" fill="#48494b"/><rect x="13" y="20" width="5" height="1" fill="#48494b"/><rect x="23" y="20" width="5" height="1" fill="#48494b"/><rect x="29" y="20" width="1" height="1" fill="#48494b"/><rect x="31" y="20" width="4" height="1" fill="#48494b"/><rect x="36" y="20" width="1" height="1" fill="#48494b"/><rect x="6" y="21" width="1" height="1" fill="#48494b"/><rect x="8" y="21" width="2" height="1" fill="#48494b"/><rect x="11" y="21" width="1" height="1" fill="#48494b"/><rect x="14" y="21" width="1" height="1" fill="#48494b"/><rect x="16" y="21" width="1" height="1" fill="#48494b"/><rect x="24" y="21" width="1" height="1" fill="#48494b"/><rect x="26" y="21" width="1" height="1" fill="#48494b"/><rect x="29" y="21" width="1" height="1" fill="#48494b"/><rect x="31" y="21" width="5" height="1" fill="#48494b"/><rect x="8" y="22" width="4" height="1" fill="#48494b"/><rect x="15" y="22" width="1" height="1" fill="#48494b"/><rect x="25" y="22" width="1" height="1" fill="#48494b"/><rect x="29" y="22" width="5" height="1" fill="#48494b"/><rect x="8" y="23" width="5" height="1" fill="#48494b"/><rect x="15" y="23" width="1" height="1" fill="#48494b"/><rect x="25" y="23" width="1" height="1" fill="#48494b"/><rect x="28" y="23" width="5" height="1" fill="#48494b"/><rect x="7" y="24" width="6" height="1" fill="#48494b"/><rect x="19" y="24" width="3" height="1" fill="#48494b"/><rect x="28" y="24" width="6" height="1" fill="#48494b"/><rect x="8" y="25" width="1" height="1" fill="#48494b"/><rect x="10" y="25" width="4" height="1" fill="#48494b"/><rect x="27" y="25" width="7" height="1" fill="#48494b"/><rect x="10" y="26" width="5" height="1" fill="#48494b"/><rect x="26" y="26" width="4" height="1" fill="#48494b"/><rect x="31" y="26" width="2" height="1" fill="#48494b"/><rect x="10" y="27" width="7" height="1" fill="#48494b"/><rect x="24" y="27" width="6" height="1" fill="#48494b"/><rect x="31" y="27" width="2" height="1" fill="#48494b"/><rect x="11" y="28" width="2" height="1" fill="#48494b"/><rect x="14" y="28" width="2" height="1" fill="#48494b"/><rect x="17" y="28" width="2" height="1" fill="#48494b"/><rect x="22" y="28" width="2" height="1" fill="#48494b"/><rect x="25" y="28" width="1" height="1" fill="#48494b"/><rect x="27" y="28" width="2" height="1" fill="#48494b"/><rect x="31" y="28" width="1" height="1" fill="#48494b"/><rect x="12" y="29" width="1" height="1" fill="#48494b"/><rect x="14" y="29" width="1" height="1" fill="#48494b"/><rect x="18" y="29" width="5" height="1" fill="#48494b"/><rect x="25" y="29" width="1" height="1" fill="#48494b"/><rect x="27" y="29" width="1" height="1" fill="#48494b"/><rect x="18" y="30" width="5" height="1" fill="#48494b"/><rect x="27" y="30" width="1" height="1" fill="#48494b"/><rect x="14" y="31" width="1" height="1" fill="#48494b"/><rect x="16" y="31" width="3" height="1" fill="#48494b"/><rect x="20" y="31" width="1" height="1" fill="#48494b"/><rect x="22" y="31" width="3" height="1" fill="#48494b"/><rect x="26" y="31" width="1" height="1" fill="#48494b"/><rect x="11" y="32" width="3" height="1" fill="#48494b"/><rect x="15" y="32" width="1" height="1" fill="#48494b"/><rect x="17" y="32" width="1" height="1" fill="#48494b"/><rect x="19" y="32" width="1" height="1" fill="#48494b"/><rect x="21" y="32" width="1" height="1" fill="#48494b"/><rect x="23" y="32" width="1" height="1" fill="#48494b"/><rect x="25" y="32" width="1" height="1" fill="#48494b"/><rect x="27" y="32" width="3" height="1" fill="#48494b"/><rect x="10" y="33" width="1" height="1" fill="#48494b"/><rect x="12" y="33" width="2" height="1" fill="#48494b"/><rect x="15" y="33" width="2" height="1" fill="#48494b"/><rect x="18" y="33" width="1" height="1" fill="#48494b"/><rect x="20" y="33" width="1" height="1" fill="#48494b"/><rect x="22" y="33" width="1" height="1" fill="#48494b"/><rect x="24" y="33" width="2" height="1" fill="#48494b"/><rect x="27" y="33" width="2" height="1" fill="#48494b"/><rect x="30" y="33" width="1" height="1" fill="#48494b"/><rect x="9" y="34" width="2" height="1" fill="#48494b"/><rect x="12" y="34" width="3" height="1" fill="#48494b"/><rect x="16" y="34" width="9" height="1" fill="#48494b"/><rect x="26" y="34" width="3" height="1" fill="#48494b"/><rect x="30" y="34" width="2" height="1" fill="#48494b"/><rect x="7" y="35" width="1" height="1" fill="#48494b"/><rect x="9" y="35" width="7" height="1" fill="#48494b"/><rect x="17" y="35" width="1" height="1" fill="#48494b"/><rect x="19" y="35" width="1" height="1" fill="#48494b"/><rect x="21" y="35" width="1" height="1" fill="#48494b"/><rect x="23" y="35" width="1" height="1" fill="#48494b"/><rect x="25" y="35" width="7" height="1" fill="#48494b"/><rect x="33" y="35" width="1" height="1" fill="#48494b"/><rect x="6" y="36" width="2" height="1" fill="#48494b"/><rect x="9" y="36" width="2" height="1" fill="#48494b"/><rect x="12" y="36" width="5" height="1" fill="#48494b"/><rect x="18" y="36" width="1" height="1" fill="#48494b"/><rect x="20" y="36" width="1" height="1" fill="#48494b"/><rect x="22" y="36" width="1" height="1" fill="#48494b"/><rect x="24" y="36" width="5" height="1" fill="#48494b"/><rect x="30" y="36" width="2" height="1" fill="#48494b"/><rect x="33" y="36" width="2" height="1" fill="#48494b"/><rect x="5" y="37" width="2" height="1" fill="#48494b"/><rect x="8" y="37" width="3" height="1" fill="#48494b"/><rect x="12" y="37" width="6" height="1" fill="#48494b"/><rect x="19" y="37" width="3" height="1" fill="#48494b"/><rect x="23" y="37" width="6" height="1" fill="#48494b"/><rect x="30" y="37" width="3" height="1" fill="#48494b"/><rect x="34" y="37" width="2" height="1" fill="#48494b"/><rect x="6" y="38" width="2" height="1" fill="#48494b"/><rect x="9" y="38" width="3" height="1" fill="#48494b"/><rect x="13" y="38" width="15" height="1" fill="#48494b"/><rect x="29" y="38" width="8" height="1" fill="#48494b"/><rect x="4" y="39" width="2" height="1" fill="#48494b"/><rect x="7" y="39" width="2" height="1" fill="#48494b"/><rect x="10" y="39" width="2" height="1" fill="#48494b"/><rect x="13" y="39" width="15" height="1" fill="#48494b"/><rect x="29" y="39" width="5" height="1" fill="#48494b"/><rect x="35" y="39" width="1" height="1" fill="#48494b"/></svg>