<svg xmlns="http://www.w3.org/2000/svg" width="1000" height="1000" viewBox="0 0 40 40" shape-rendering="crispEdges"><rect width="40" height="40" fill="#e3e5e4"/><rect x="8" y="2" width="1" height="1" fill="#48494b"/><rect x="31" y="2" width="1" height="1" fill="#48494b"/><rect x="10" y="3" width="1" height="1" fill="#48494b"/><rect x="18" y="3" width="5" height="1" fill="#48494b"/><rect x="29" y="3" width="1" height="1" fill="#48494b"/><rect x="9" y="4" width="1" height="1" fill="#48494b"/><rect x="12" y="4" width="1" height="1" fill="#48494b"/><rect x="16" y="4" width="9" height="1" fill="#48494b"/><rect x="27" y="4" width="1" height="1" fill="#48494b"/><rect x="30" y="4" width="1" height="1" fill="#48494b"/><rect x="9" y="5" width="2" height="1" fill="#48494b"/><rect x="14" y="5" width="12" height="1" fill="#48494b"/><rect x="29" y="5" width="2" height="1" fill="#48494b"/><rect x="8" y="6" width="4" height="1" fill="#48494b"/><rect x="14" y="6" width="12" height="1" fill="#48494b"/><rect x="28" y="6" width="3" height="1" fill="#48494b"/><rect x="8" y="7" width="4" height="1" fill="#48494b"/><rect x="14" y="7" width="4" height="1" fill="#48494b"/><rect x="19" y="7" width="3" height="1" fill="#48494b"/><rect x="23" y="7" width="4" height="1" fill="#48494b"/><rect x="29" y="7" width="2" height="1" fill="#48494b"/><rect x="8" y="8" width="3" height="1" fill="#48494b"/><rect x="13" y="8" width="14" height="1" fill="#48494b"/><rect x="30" y="8" width="1" height="1" fill="#48494b"/><rect x="9" y="9" width="2" height="1" fill="#48494b"/><rect x="13" y="9" width="15" height="1" fill="#48494b"/><rect x="30" y="9" width="2" height="1" fill="#48494b"/><rect x="10" y="10" width="1" height="1" fill="#48494b"/><rect x="12" y="10" width="6" height="1" fill="#48494b"/><rect x="19" y="10" width="9" height="1" fill="#48494b"/><rect x="29" y="10" width="2" height="1" fill="#48494b"/><rect x="9" y="11" width="1" height="1" fill="#48494b"/><rect x="11" y="11" width="7" height="1" fill="#48494b"/><rect x="19" y="11" width="3" height="1" fill="#48494b"/><rect x="23" y="11" width="7" height="1" fill="#48494b"/><rect x="9" y="12" width="1" height="1" fill="#48494b"/><rect x="11" y="12" width="4" height="1" fill="#48494b"/><rect x="16" y="12" width="1" height="1" fill="#48494b"/><rect x="20" y="12" width="2" height="1" fill="#48494b"/><rect x="24" y="12" width="5" height="1" fill="#48494b"/><rect x="30" y="12" width="2" height="1" fill="#48494b"/><rect x="10" y="13" width="4" height="1" fill="#48494b"/><rect x="20" y="13" width="1" height="1" fill="#48494b"/><rect x="26" y="13" width="3" height="1" fill="#48494b"/><rect x="30" y="13" width="6" height="1" fill="#48494b"/><rect x="11" y="14" width="2" height="1" fill="#48494b"/><rect x="14" y="14" width="4" height="1" fill="#48494b"/><rect x="22" y="14" width="7" height="1" fill="#48494b"/><rect x="30" y="14" width="5" height="1" fill="#48494b"/><rect x="12" y="15" width="4" height="1" fill="#48494b"/><rect x="17" y="15" width="8" height="1" fill="#48494b"/><rect x="26" y="15" width="3" height="1" fill="#48494b"/><rect x="31" y="15" width="3" height="1" fill="#48494b"/><rect x="12" y="16" width="3" height="1" fill="#48494b"/><rect x="16" y="16" width="3" height="1" fill="#48494b"/><rect x="21" y="16" width="3" height="1" fill="#48494b"/><rect x="25" y="16" width="3" height="1" fill="#48494b"/><rect x="31" y="16" width="4" height="1" fill="#48494b"/><rect x="12" y="17" width="7" height="1" fill="#48494b"/><rect x="21" y="17" width="7" height="1" fill="#48494b"/><rect x="31" y="17" width="5" height="1" fill="#48494b"/><rect x="13" y="18" width="5" height="1" fill="#48494b"/><rect x="22" y="18" width="5" height="1" fill="#48494b"/><rect x="31" y="18" width="6" height="1" fill="#48494b"/><rect x="31" y="19" width="4" height="1" fill="#48494b"/><rect x="31" y="20" width="4" height="1" fill="#48494b"/><rect x="32" y="21" width="4" height="1" fill="#48494b"/><rect x="30" y="22" width="6" height="1" fill="#48494b"/><rect x="28" y="23" width="7" height="1" fill="#48494b"/><rect x="13" y="24" width="3" height="1" fill="#48494b"/><rect x="24" y="24" width="2" height="1" fill="#48494b"/><rect x="27" y="24" width="8" height="1" fill="#48494b"/><rect x="12" y="25" width="7" height="1" fill="#48494b"/><rect x="22" y="25" width="4" height="1" fill="#48494b"/><rect x="27" y="25" width="8" height="1" fill="#48494b"/><rect x="11" y="26" width="5" height="1" fill="#48494b"/><rect x="17" y="26" width="1" height="1" fill="#48494b"/><rect x="19" y="26" width="4" height="1" fill="#48494b"/><rect x="24" y="26" width="10" height="1" fill="#48494b"/><rect x="10" y="27" width="6" height="1" fill="#48494b"/><rect x="18" y="27" width="2" height="1" fill="#48494b"/><rect x="21" y="27" width="1" height="1" fill="#48494b"/><rect x="24" y="27" width="10" height="1" fill="#48494b"/><rect x="12" y="28" width="6" height="1" fill="#48494b"/><rect x="22" y="28" width="10" height="1" fill="#48494b"/><rect x="10" y="29" width="21" height="1" fill="#48494b"/><rect x="9" y="30" width="23" height="1" fill="#48494b"/><rect x="6" y="31" width="29" height="1" fill="#48494b"/><rect x="5" y="32" width="1" height="1" fill="#48494b"/><rect x="8" y="32" width="25" height="1" fill="#48494b"/><rect x="35" y="32" width="1" height="1" fill="#48494b"/><rect x="8" y="33" width="25" height="1" fill="#48494b"/><rect x="8" y="34" width="4" height="1" fill="#48494b"/><rect x="13" y="34" width="16" height="1" fill="#48494b"/><rect x="30" y="34" width="3" height="1" fill="#48494b"/><rect x="4" y="35" width="1" height="1" fill="#48494b"/><rect x="8" y="35" width="19" height="1" fill="#48494b"/><rect x="28" y="35" width="5" height="1" fill="#48494b"/><rect x="36" y="35" width="1" height="1" fill="#48494b"/><rect x="4" y="36" width="1" height="1" fill="#48494b"/><rect x="9" y="36" width="7" height="1" fill="#48494b"/><rect x="17" y="36" width="8" height="1" fill="#48494b"/><rect x="26" y="36" width="6" height="1" fill="#48494b"/><rect x="36" y="36" width="1" height="1" fill="#48494b"/><rect x="4" y="37" width="1" height="1" fill="#48494b"/><rect x="7" y="37" width="1" height="1" fill="#48494b"/><rect x="9" y="37" width="5" height="1" fill="#48494b"/><rect x="15" y="37" width="5" height="1" fill="#48494b"/><rect x="21" y="37" width="11" height="1" fill="#48494b"/><rect x="33" y="37" width="1" height="1" fill="#48494b"/><rect x="36" y="37" width="1" height="1" fill="#48494b"/><rect x="8" y="38" width="4" height="1" fill="#48494b"/><rect x="13" y="38" width="20" height="1" fill="#48494b"/><rect x="9" y="39" width="22" height="1" fill="#48494b"/></svg>