<svg xmlns="http://www.w3.org/2000/svg" width="1000" height="1000" viewBox="0 0 40 40" shape-rendering="crispEdges"><rect width="40" height="40" fill="#e3e5e4"/><rect x="0" y="0" width="40" height="1" fill="#48494b"/><rect x="0" y="1" width="40" height="1" fill="#48494b"/><rect x="0" y="2" width="17" height="1" fill="#48494b"/><rect x="23" y="2" width="17" height="1" fill="#48494b"/><rect x="0" y="3" width="16" height="1" fill="#48494b"/><rect x="24" y="3" width="16" height="1" fill="#48494b"/><rect x="0" y="4" width="14" height="1" fill="#48494b"/><rect x="26" y="4" width="14" height="1" fill="#48494b"/><rect x="0" y="5" width="14" height="1" fill="#48494b"/><rect x="26" y="5" width="14" height="1" fill="#48494b"/><rect x="0" y="6" width="13" height="1" fill="#48494b"/><rect x="17" y="6" width="1" height="1" fill="#48494b"/><rect x="22" y="6" width="1" height="1" fill="#48494b"/><rect x="26" y="6" width="14" height="1" fill="#48494b"/><rect x="0" y="7" width="12" height="1" fill="#48494b"/><rect x="17" y="7" width="1" height="1" fill="#48494b"/><rect x="22" y="7" width="2" height="1" fill="#48494b"/><rect x="27" y="7" width="13" height="1" fill="#48494b"/><rect x="0" y="8" width="12" height="1" fill="#48494b"/><rect x="23" y="8" width="1" height="1" fill="#48494b"/><rect x="25" y="8" width="1" height="1" fill="#48494b"/><rect x="27" y="8" width="13" height="1" fill="#48494b"/><rect x="0" y="9" width="12" height="1" fill="#48494b"/><rect x="15" y="9" width="1" height="1" fill="#48494b"/><rect x="22" y="9" width="4" height="1" fill="#48494b"/><rect x="28" y="9" width="12" height="1" fill="#48494b"/><rect x="0" y="10" width="12" height="1" fill="#48494b"/><rect x="15" y="10" width="1" height="1" fill="#48494b"/><rect x="24" y="10" width="2" height="1" fill="#48494b"/><rect x="27" y="10" width="13" height="1" fill="#48494b"/><rect x="0" y="11" width="12" height="1" fill="#48494b"/><rect x="14" y="11" width="4" height="1" fill="#48494b"/><rect x="20" y="11" width="1" height="1" fill="#48494b"/><rect x="22" y="11" width="4" height="1" fill="#48494b"/><rect x="27" y="11" width="13" height="1" fill="#48494b"/><rect x="0" y="12" width="11" height="1" fill="#48494b"/><rect x="12" y="12" width="1" height="1" fill="#48494b"/><rect x="14" y="12" width="9" height="1" fill="#48494b"/><rect x="24" y="12" width="2" height="1" fill="#48494b"/><rect x="28" y="12" width="12" height="1" fill="#48494b"/><rect x="0" y="13" width="11" height="1" fill="#48494b"/><rect x="12" y="13" width="1" height="1" fill="#48494b"/><rect x="14" y="13" width="1" height="1" fill="#48494b"/><rect x="18" y="13" width="2" height="1" fill="#48494b"/><rect x="21" y="13" width="1" height="1" fill="#48494b"/><rect x="24" y="13" width="2" height="1" fill="#48494b"/><rect x="28" y="13" width="12" height="1" fill="#48494b"/><rect x="0" y="14" width="11" height="1" fill="#48494b"/><rect x="14" y="14" width="5" height="1" fill="#48494b"/><rect x="22" y="14" width="2" height="1" fill="#48494b"/><rect x="25" y="14" width="2" height="1" fill="#48494b"/><rect x="29" y="14" width="11" height="1" fill="#48494b"/><rect x="0" y="15" width="13" height="1" fill="#48494b"/><rect x="14" y="15" width="2" height="1" fill="#48494b"/><rect x="24" y="15" width="3" height="1" fill="#48494b"/><rect x="29" y="15" width="11" height="1" fill="#48494b"/><rect x="0" y="16" width="11" height="1" fill="#48494b"/><rect x="12" y="16" width="1" height="1" fill="#48494b"/><rect x="14" y="16" width="4" height="1" fill="#48494b"/><rect x="19" y="16" width="9" height="1" fill="#48494b"/><rect x="29" y="16" width="11" height="1" fill="#48494b"/><rect x="0" y="17" width="11" height="1" fill="#48494b"/><rect x="12" y="17" width="1" height="1" fill="#48494b"/><rect x="14" y="17" width="5" height="1" fill="#48494b"/><rect x="21" y="17" width="1" height="1" fill="#48494b"/><rect x="23" y="17" width="17" height="1" fill="#48494b"/><rect x="0" y="18" width="11" height="1" fill="#48494b"/><rect x="12" y="18" width="1" height="1" fill="#48494b"/><rect x="14" y="18" width="6" height="1" fill="#48494b"/><rect x="21" y="18" width="19" height="1" fill="#48494b"/><rect x="0" y="19" width="13" height="1" fill="#48494b"/><rect x="14" y="19" width="3" height="1" fill="#48494b"/><rect x="18" y="19" width="1" height="1" fill="#48494b"/><rect x="21" y="19" width="2" height="1" fill="#48494b"/><rect x="24" y="19" width="3" height="1" fill="#48494b"/><rect x="28" y="19" width="12" height="1" fill="#48494b"/><rect x="0" y="20" width="13" height="1" fill="#48494b"/><rect x="14" y="20" width="3" height="1" fill="#48494b"/><rect x="18" y="20" width="2" height="1" fill="#48494b"/><rect x="21" y="20" width="6" height="1" fill="#48494b"/><rect x="28" y="20" width="12" height="1" fill="#48494b"/><rect x="0" y="21" width="19" height="1" fill="#48494b"/><rect x="22" y="21" width="5" height="1" fill="#48494b"/><rect x="28" y="21" width="12" height="1" fill="#48494b"/><rect x="0" y="22" width="10" height="1" fill="#48494b"/><rect x="11" y="22" width="2" height="1" fill="#48494b"/><rect x="14" y="22" width="13" height="1" fill="#48494b"/><rect x="28" y="22" width="12" height="1" fill="#48494b"/><rect x="0" y="23" width="9" height="1" fill="#48494b"/><rect x="11" y="23" width="29" height="1" fill="#48494b"/><rect x="0" y="24" width="8" height="1" fill="#48494b"/><rect x="9" y="24" width="18" height="1" fill="#48494b"/><rect x="28" y="24" width="3" height="1" fill="#48494b"/><rect x="32" y="24" width="8" height="1" fill="#48494b"/><rect x="0" y="25" width="14" height="1" fill="#48494b"/><rect x="15" y="25" width="12" height="1" fill="#48494b"/><rect x="28" y="25" width="2" height="1" fill="#48494b"/><rect x="31" y="25" width="9" height="1" fill="#48494b"/><rect x="0" y="26" width="9" height="1" fill="#48494b"/><rect x="11" y="26" width="3" height="1" fill="#48494b"/><rect x="15" y="26" width="12" height="1" fill="#48494b"/><rect x="28" y="26" width="1" height="1" fill="#48494b"/><rect x="30" y="26" width="10" height="1" fill="#48494b"/><rect x="0" y="27" width="6" height="1" fill="#48494b"/><rect x="8" y="27" width="6" height="1" fill="#48494b"/><rect x="15" y="27" width="10" height="1" fill="#48494b"/><rect x="26" y="27" width="1" height="1" fill="#48494b"/><rect x="29" y="27" width="2" height="1" fill="#48494b"/><rect x="34" y="27" width="6" height="1" fill="#48494b"/><rect x="0" y="28" width="5" height="1" fill="#48494b"/><rect x="9" y="28" width="5" height="1" fill="#48494b"/><rect x="15" y="28" width="10" height="1" fill="#48494b"/><rect x="26" y="28" width="1" height="1" fill="#48494b"/><rect x="28" y="28" width="4" height="1" fill="#48494b"/><rect x="35" y="28" width="5" height="1" fill="#48494b"/><rect x="0" y="29" width="5" height="1" fill="#48494b"/><rect x="10" y="29" width="4" height="1" fill="#48494b"/><rect x="15" y="29" width="4" height="1" fill="#48494b"/><rect x="21" y="29" width="4" height="1" fill="#48494b"/><rect x="26" y="29" width="4" height="1" fill="#48494b"/><rect x="36" y="29" width="4" height="1" fill="#48494b"/><rect x="0" y="30" width="5" height="1" fill="#48494b"/><rect x="9" y="30" width="5" height="1" fill="#48494b"/><rect x="15" y="30" width="3" height="1" fill="#48494b"/><rect x="22" y="30" width="3" height="1" fill="#48494b"/><rect x="26" y="30" width="4" height="1" fill="#48494b"/><rect x="33" y="30" width="1" height="1" fill="#48494b"/><rect x="36" y="30" width="4" height="1" fill="#48494b"/><rect x="0" y="31" width="5" height="1" fill="#48494b"/><rect x="6" y="31" width="1" height="1" fill="#48494b"/><rect x="8" y="31" width="1" height="1" fill="#48494b"/><rect x="11" y="31" width="3" height="1" fill="#48494b"/><rect x="15" y="31" width="10" height="1" fill="#48494b"/><rect x="26" y="31" width="4" height="1" fill="#48494b"/><rect x="33" y="31" width="1" height="1" fill="#48494b"/><rect x="36" y="31" width="4" height="1" fill="#48494b"/><rect x="0" y="32" width="5" height="1" fill="#48494b"/><rect x="6" y="32" width="4" height="1" fill="#48494b"/><rect x="11" y="32" width="11" height="1" fill="#48494b"/><rect x="23" y="32" width="11" height="1" fill="#48494b"/><rect x="36" y="32" width="4" height="1" fill="#48494b"/><rect x="0" y="33" width="5" height="1" fill="#48494b"/><rect x="6" y="33" width="11" height="1" fill="#48494b"/><rect x="19" y="33" width="15" height="1" fill="#48494b"/><rect x="35" y="33" width="5" height="1" fill="#48494b"/><rect x="0" y="34" width="12" height="1" fill="#48494b"/><rect x="13" y="34" width="27" height="1" fill="#48494b"/><rect x="0" y="35" width="14" height="1" fill="#48494b"/><rect x="15" y="35" width="3" height="1" fill="#48494b"/><rect x="19" y="35" width="1" height="1" fill="#48494b"/><rect x="22" y="35" width="18" height="1" fill="#48494b"/><rect x="0" y="36" width="18" height="1" fill="#48494b"/><rect x="19" y="36" width="6" height="1" fill="#48494b"/><rect x="26" y="36" width="14" height="1" fill="#48494b"/><rect x="0" y="37" width="40" height="1" fill="#48494b"/><rect x="0" y="38" width="40" height="1" fill="#48494b"/><rect x="0" y="39" width="14" height="1" fill="#48494b"/><rect x="15" y="39" width="25" height="1" fill="#48494b"/></svg>